<?xml version="1.0" encoding="UTF-8"?>
<svg viewBox="0 0 1689 1729" xmlns="http://www.w3.org/2000/svg">
<rect x="280" y="414" width="1159" height="881" fill="#D9D9D9"/>
<path d="m792.93 23.402c12.859-14.812 31.512-23.32 51.121-23.32 19.621 0 38.27 8.5078 51.129 23.32l85.18 98.129c7.621 8.781 17.832 14.91 29.173 17.492 11.33 2.59 23.19 1.5 33.87-3.101l119.32-51.449c18.01-7.7696 38.51-7.3399 56.18 1.1679 17.67 8.5117 30.78 24.261 35.94 43.191l34.17 125.37c3.06 11.219 9.6 21.168 18.69 28.418s20.25 11.41 31.86 11.902l129.84 5.411c19.59 0.816 37.87 10.089 50.1 25.429s17.21 35.219 13.65 54.508l-23.62 127.78c-2.11 11.43-0.53 23.239 4.51 33.711 5.05 10.477 13.29 19.071 23.55 24.547l114.62 61.211c17.31 9.242 29.75 25.531 34.12 44.652 4.36 19.118 0.22 39.2-11.36 55.028l-76.72 104.88c-6.86 9.386-10.56 20.707-10.56 32.328 0 11.629 3.7 22.949 10.56 32.328l76.72 104.89c11.58 15.83 15.72 35.9 11.36 55.03-4.37 19.12-16.81 35.41-34.12 44.65l-114.62 61.21c-10.26 5.48-18.5 14.07-23.55 24.54-5.04 10.48-6.62 22.29-4.51 33.72l23.62 127.78c3.56 19.29-1.42 39.17-13.65 54.51-12.23 15.33-30.51 24.61-50.1 25.43l-129.84 5.41c-11.61 0.49-22.77 4.65-31.86 11.9s-15.63 17.2-18.69 28.42l-34.17 125.37c-5.16 18.92-18.27 34.68-35.94 43.19s-38.17 8.94-56.18 1.17l-119.32-51.45c-10.68-4.61-22.54-5.69-33.87-3.11-11.341 2.59-21.552 8.72-29.173 17.5l-85.18 98.13c-12.859 14.81-31.508 23.32-51.129 23.32-19.609 0-38.262-8.51-51.121-23.32l-85.18-98.13c-7.621-8.78-17.839-14.91-29.168-17.5-11.332-2.58-23.203-1.5-33.871 3.11l-119.32 51.45c-18.019 7.77-38.512 7.34-56.18-1.17-17.679-8.51-30.789-24.27-35.949-43.19l-34.164-125.37c-3.058-11.22-9.605-21.17-18.691-28.42-9.09-7.25-20.25-11.41-31.864-11.9l-129.83-5.41c-19.597-0.82-37.879-10.1-50.109-25.43-12.23-15.34-17.207-35.22-13.641-54.51l23.614-127.78c2.113-11.43 0.531-23.24-4.512-33.72-5.043-10.47-13.289-19.06-23.543-24.54l-114.63-61.21c-17.301-9.24-29.746-25.53-34.109-44.65-4.3672-19.13-0.22266-39.2 11.359-55.03l76.719-104.89c6.8594-9.379 10.558-20.699 10.558-32.328 0-11.621-3.6988-22.942-10.558-32.328l-76.719-104.88c-11.582-15.828-15.727-35.91-11.359-55.028 4.3633-19.121 16.809-35.41 34.109-44.652l114.63-61.211c10.254-5.476 18.5-14.07 23.543-24.547 5.043-10.472 6.625-22.281 4.512-33.711l-23.614-127.78c-3.566-19.289 1.411-39.168 13.641-54.508s30.512-24.613 50.109-25.429l129.83-5.411c11.614-0.492 22.774-4.652 31.864-11.902 9.086-7.25 15.633-17.199 18.691-28.418l34.164-125.37c5.16-18.93 18.27-34.68 35.949-43.191 17.668-8.5078 38.161-8.9375 56.18-1.1679l119.32 51.449c10.668 4.601 22.539 5.691 33.871 3.101 11.329-2.582 21.547-8.711 29.168-17.492l85.18-98.129zm-347.91 892.65 263.72 246.14c18.789 17.54 43.867 26.74 69.539 25.51 25.668-1.23 49.75-12.78 66.777-32.03l404.38-457.12c34.83-39.367 31.14-99.61-8.23-134.44-39.37-34.832-99.62-31.14-134.44 8.227l-339.57 383.86-192.21-179.4c-38.434-35.867-98.75-33.789-134.62 4.64-35.864 38.43-33.782 98.743 4.648 134.61z" clip-rule="evenodd" fill="#05f" fill-rule="evenodd"/>
<path d="m792.87 23.352c12.871-14.828 31.539-23.352 51.179-23.352 19.641 0 38.309 8.5234 51.192 23.352l85.179 98.128c7.61 8.77 17.809 14.883 29.121 17.473 11.32 2.578 23.17 1.488 33.82-3.101l119.33-51.461c18.03-7.7695 38.55-7.3476 56.25 1.1719 17.69 8.5195 30.82 24.3 35.98 43.25l34.17 125.37c3.05 11.199 9.59 21.136 18.66 28.367 9.08 7.242 20.22 11.402 31.82 11.89l129.83 5.411c19.62 0.82 37.92 10.109 50.17 25.46 12.24 15.348 17.22 35.258 13.65 54.571l-23.61 127.79c-2.11 11.41-0.53 23.199 4.51 33.66 5.03 10.461 13.27 19.039 23.5 24.508l114.63 61.211c17.32 9.25 29.78 25.562 34.16 44.699 4.36 19.152 0.21 39.25-11.38 55.102l-76.72 104.88c-6.85 9.372-10.54 20.68-10.54 32.282 0 11.609 3.69 22.922 10.54 32.289l76.72 104.88c11.59 15.85 15.74 35.95 11.38 55.1-4.38 19.14-16.84 35.45-34.16 44.7l-114.63 61.21c-10.23 5.47-18.47 14.05-23.5 24.51-5.04 10.46-6.62 22.25-4.51 33.66l23.61 127.78c3.57 19.32-1.41 39.23-13.65 54.58-12.25 15.35-30.55 24.64-50.17 25.46l-129.83 5.41c-11.6 0.49-22.74 4.65-31.82 11.89-9.07 7.23-15.61 17.17-18.66 28.37l-34.17 125.37c-5.16 18.95-18.29 34.73-35.98 43.24-17.7 8.53-38.22 8.95-56.25 1.18l-119.33-51.46c-10.65-4.59-22.5-5.68-33.82-3.1-11.312 2.59-21.511 8.71-29.121 17.47l-85.179 98.13c-12.883 14.83-31.551 23.35-51.192 23.35-19.64 0-38.308-8.52-51.179-23.35l-85.18-98.13c-7.61-8.76-17.813-14.88-29.133-17.47-11.316-2.58-23.156-1.49-33.816 3.1l-119.32 51.46c-18.043 7.77-38.562 7.35-56.25-1.18-17.691-8.51-30.82-24.29-35.98-43.24l-34.172-125.37c-3.055-11.2-9.59-21.14-18.664-28.37-9.074-7.24-20.219-11.4-31.816-11.89l-129.83-5.41c-19.621-0.82-37.921-10.11-50.167-25.46-12.243-15.35-17.227-35.26-13.657-54.58l23.614-127.78c2.105-11.41 0.531-23.2-4.508-33.66-5.035-10.46-13.27-19.04-23.508-24.51l-114.63-61.21c-17.324-9.25-29.785-25.56-34.152-44.7-4.3711-19.15-0.22266-39.25 11.371-55.1l76.719-104.88c6.8516-9.367 10.547-20.68 10.547-32.289 0-11.602-3.695-22.91-10.547-32.282l-76.719-104.88c-11.594-15.852-15.742-35.95-11.371-55.102 4.3672-19.137 16.828-35.449 34.152-44.699l114.63-61.211c10.238-5.469 18.473-14.047 23.508-24.508 5.039-10.461 6.613-22.25 4.508-33.66l-23.614-127.79c-3.57-19.313 1.414-39.223 13.657-54.571 12.246-15.351 30.546-24.64 50.167-25.46l129.83-5.411c11.597-0.488 22.742-4.648 31.816-11.89 9.074-7.231 15.609-17.168 18.664-28.367l34.172-125.37c5.16-18.949 18.289-34.73 35.98-43.25 17.688-8.5195 38.207-8.9414 56.25-1.1719l119.32 51.461c10.66 4.589 22.5 5.679 33.816 3.101 11.32-2.59 21.523-8.703 29.133-17.473l85.18-98.128zm0.058 0.0507-85.18 98.129c-7.621 8.781-17.839 14.91-29.168 17.492-11.332 2.59-23.203 1.5-33.871-3.101l-119.32-51.449c-18.019-7.7696-38.512-7.3399-56.18 1.1679-17.679 8.5117-30.789 24.261-35.949 43.191l-34.164 125.37c-3.058 11.219-9.605 21.168-18.691 28.418-9.09 7.25-20.25 11.41-31.864 11.902l-129.83 5.411c-19.597 0.816-37.879 10.089-50.109 25.429s-17.207 35.219-13.641 54.508l23.614 127.78c2.113 11.43 0.531 23.239-4.512 33.711-5.043 10.477-13.289 19.071-23.543 24.547l-114.63 61.211c-17.301 9.242-29.746 25.531-34.109 44.652-4.3672 19.118-0.22265 39.2 11.359 55.028l76.719 104.88c6.8594 9.386 10.558 20.707 10.558 32.328 0 11.629-3.6988 22.949-10.558 32.328l-76.719 104.89c-11.582 15.83-15.727 35.9-11.359 55.03 4.3633 19.12 16.809 35.41 34.109 44.65l114.63 61.21c10.254 5.48 18.5 14.07 23.543 24.54 5.043 10.48 6.625 22.29 4.512 33.72l-23.614 127.78c-3.566 19.29 1.411 39.17 13.641 54.51 12.23 15.33 30.512 24.61 50.109 25.43l129.83 5.41c11.614 0.49 22.774 4.65 31.864 11.9 9.086 7.25 15.633 17.2 18.691 28.42l34.164 125.37c5.16 18.92 18.27 34.68 35.949 43.19 17.668 8.51 38.161 8.94 56.18 1.17l119.32-51.45c10.668-4.61 22.539-5.69 33.871-3.11 11.329 2.59 21.547 8.72 29.168 17.5l85.18 98.13c12.859 14.81 31.512 23.32 51.121 23.32 19.621 0 38.27-8.51 51.129-23.32l85.18-98.13c7.621-8.78 17.832-14.91 29.173-17.5 11.33-2.58 23.19-1.5 33.87 3.11l119.32 51.45c18.01 7.77 38.51 7.34 56.18-1.17s30.78-24.27 35.94-43.19l34.17-125.37c3.06-11.22 9.6-21.17 18.69-28.42s20.25-11.41 31.86-11.9l129.84-5.41c19.59-0.82 37.87-10.1 50.1-25.43 12.23-15.34 17.21-35.22 13.65-54.51l-23.62-127.78c-2.11-11.43-0.53-23.24 4.51-33.72 5.05-10.47 13.29-19.06 23.55-24.54l114.62-61.21c17.31-9.24 29.75-25.53 34.12-44.65 4.36-19.13 0.22-39.2-11.36-55.03l-76.72-104.89c-6.86-9.379-10.56-20.699-10.56-32.328 0-11.621 3.7-22.942 10.56-32.328l76.72-104.88c11.58-15.828 15.72-35.91 11.36-55.028-4.37-19.121-16.81-35.41-34.12-44.652l-114.62-61.211c-10.26-5.476-18.5-14.07-23.55-24.547-5.04-10.472-6.62-22.281-4.51-33.711l23.62-127.78c3.56-19.289-1.42-39.168-13.65-54.508s-30.51-24.613-50.1-25.429l-129.84-5.411c-11.61-0.492-22.77-4.652-31.86-11.902s-15.63-17.199-18.69-28.418l-34.17-125.37c-5.16-18.93-18.27-34.68-35.94-43.191-17.67-8.5078-38.17-8.9375-56.18-1.1679l-119.32 51.449c-10.68 4.601-22.54 5.691-33.87 3.101-11.341-2.582-21.552-8.711-29.173-17.492l-85.18-98.129c-12.859-14.812-31.508-23.32-51.129-23.32-19.609 0-38.262 8.5078-51.121 23.32zm-347.91 892.65c-38.43-35.867-40.512-96.18-4.648-134.61 35.871-38.429 96.187-40.507 134.62-4.64l192.21 179.4 339.57-383.86c34.82-39.367 95.07-43.059 134.44-8.227 39.37 34.828 43.06 95.071 8.23 134.44l-404.38 457.12c-17.027 19.25-41.109 30.8-66.777 32.03-25.672 1.23-50.75-7.97-69.539-25.51l-263.72-246.14zm0.051-0.059 263.72 246.14c18.782 17.53 43.833 26.72 69.481 25.49 25.652-1.23 49.723-12.77 66.73-32l404.38-457.12c34.8-39.34 31.11-99.527-8.23-134.33-39.33-34.801-99.53-31.11-134.32 8.219l-339.57 383.86c-0.012 0.012-0.031 0.031-0.051 0.031-0.031 0-0.05-8e-3 -0.058-0.031l-192.22-179.39c-38.391-35.84-98.66-33.761-134.5 4.629-35.832 38.399-33.754 98.668 4.641 134.5z" clip-rule="evenodd" fill-rule="evenodd"/>
</svg>
